. 
  
http://www.torrenting.com/        :     Greatest Movie Tracker on The Net!!!
 
http://www.Torrenting.com          :     Once & For all ;)


               www . Torrenting . Com 

(((((((((((((= Enjoy No RAR releases =))))))))))))))))))))


...................................NFO:....................................

.[img]http://img8.imageshack.us/img8/1331/parawwd.jpg[/img]

[color=blue][size=5][b]Paradox.2010.BDRip.XVID.AC3.HQ.Hive-CM8[/b][/size][/color]


[b]Thx Hive

CM8 Doing It Right The First Time :D


Source Bluray

Video: 720x400 @bitrate 1800 2pass
Audio: English DTS to AC3 5.1 @448
Sample: yes included[/b]


[url]http://www.imdb.com/title/tt1343740/[/url]


General
Complete name                    : Paradox.2010.BDRip.XVID.AC3.HQ.Hive-CM8.avi
Format                           : AVI
Format/Info                      : Audio Video Interleave
File size                        : 1.36 GiB
Duration                         : 1h 26mn
Overall bit rate                 : 2 262 Kbps
Writing application              : Nandub v1.0rc2
Writing library                  : Nandub build 1853/release

Video
ID                               : 0
Format                           : MPEG-4 Visual
Format profile                   : Advanced Simple@L5
Format settings, BVOP            : Yes
Format settings, QPel            : Yes
Format settings, GMC             : No warppoints
Format settings, Matrix          : Default (H.263)
Muxing mode                      : Packed bitstream
Codec ID                         : XVID
Codec ID/Hint                    : XviD
Duration                         : 1h 26mn
Bit rate                         : 1 804 Kbps
Width                            : 720 pixels
Height                           : 400 pixels
Display aspect ratio             : 16:9
Frame rate                       : 23.976 fps
Color space                      : YUV
Chroma subsampling               : 4:2:0
Bit depth                        : 8 bits
Scan type                        : Progressive
Bits/(Pixel*Frame)               : 0.261
Stream size                      : 1.08 GiB (80%)
Writing library                  : XviD 1.2.1 (UTC 2008-12-04)

Audio
ID                               : 1
Format                           : AC-3
Format/Info                      : Audio Coding 3
Mode extension                   : CM (complete main)
Codec ID                         : 2000
Duration                         : 1h 26mn
Bit rate mode                    : Constant
Bit rate                         : 448 Kbps
Channel(s)                       : 6 channels
Channel positions                : Front: L C R, Side: L R, LFE
Sampling rate                    : 48.0 KHz
Bit depth                        : 16 bits
Stream size                      : 276 MiB (20%)
Alignment                        : Split accross interleaves
Interleave, duration             : 42 ms (1.00 video frame)
Interleave, preload duration     : 500 ms



Kevin Sorbo	 ... 	Det. Sean Nault
Steph Song	... 	Lenore
Christopher Judge	... 	Captain Papillo
Alan C. Peterson	... 	Winston Churchill
Alisen Down	... 	Helen
Jerry Wasserman	... 	Hillman


Homicide detective Sean Nault, a cop on a parallel Earth whose technology is powered 
exclusively by magic. Sean investigates a baffling series of murders committed by a means 
he's never seen before: science. With the aid of Lenoir, a member of the ridiculed subculture 
of "pragmatists" who believe science is more than the stuff of myths & children's stories, 
and the 130-year-old sorcerer Winston Churchill, Sean uncovers an ominous plot that will lead him 
to another dimension and the realization that, unless he prevents it, both earths could well be destroyed.


[img]http://img51.imageshack.us/img51/9334/ppapapapaa.png[/img]
[img]http://img823.imageshack.us/img823/323/59945872.png[/img]
[img]http://img90.imageshack.us/img90/8052/ppaa.png[/img]
[img]http://img20.imageshack.us/img20/5276/ppapaa.png[/img]
[img]http://img713.imageshack.us/img713/8396/ppapapaa.png[/img]





Greetz

ViSiON,LUSi,SANTi,MAGNET,THC,T0XiCiNK,LKRG,IMAGiNE,WBZ,FLAWL3SS,NOVA
Vik,OneTwo,Rapeseed,D2U,SAFC,goldadvance,MEMORY100,KaN1vE,Unevano,Pinnz,Wayne,Mr Hive
and all P2P groups 
Great Work Guys :D

CM8@hushmail.com